<?xml version="1.0" standalone="no"?>
<!DOCTYPE svg PUBLIC "-//W3C//DTD SVG 20010904//EN"
 "http://www.w3.org/TR/2001/REC-SVG-20010904/DTD/svg10.dtd">
<svg version="1.0" xmlns="http://www.w3.org/2000/svg"
 width="145.000000pt" height="145.000000pt" viewBox="0 0 145.000000 145.000000"
 preserveAspectRatio="xMidYMid meet">
<metadata>
Created by potrace 1.14, written by Peter Selinger 2001-2017
</metadata>
<g transform="translate(0.000000,145.000000) scale(0.100000,-0.100000)"
fill="#000000" stroke="none">
<path d="M709 1433 c-71 -30 -110 -94 -113 -185 -2 -32 -6 -61 -9 -65 -4 -3
-35 -5 -70 -4 -68 2 -114 -12 -121 -38 -8 -25 -15 -88 -22 -196 -3 -55 -8
-107 -9 -115 -5 -27 -19 -224 -18 -257 0 -37 17 -61 51 -74 17 -7 46 0 120 28
117 44 148 45 180 7 28 -35 26 -84 -7 -179 -11 -33 -23 -75 -26 -93 -7 -43 17
-88 50 -94 14 -3 112 -5 218 -4 172 2 196 4 218 21 56 42 64 63 64 165 0 88
-10 255 -20 360 -3 25 -7 79 -10 120 -18 296 -23 325 -58 336 -12 4 -53 8 -92
9 -38 2 -73 3 -77 4 -5 0 -8 27 -8 59 0 33 -8 73 -19 97 -20 44 -82 104 -109
106 -9 1 -31 2 -48 4 -18 1 -47 -4 -65 -12z m143 -96 c25 -35 31 -56 35 -104
3 -29 1 -53 -4 -54 -13 -1 -93 -2 -164 0 l-67 1 4 50 c6 79 35 123 91 139 30
9 91 -10 105 -32z m-261 -245 c1 -10 2 -30 3 -46 1 -33 29 -57 46 -40 6 6 11
30 12 53 0 50 4 51 138 48 l95 -2 5 -50 c5 -45 7 -50 30 -50 23 0 25 4 28 48
2 26 6 47 10 48 48 5 113 4 123 -2 7 -4 14 -18 15 -31 1 -13 4 -57 8 -98 15
-154 17 -176 21 -225 8 -109 16 -191 20 -220 2 -16 7 -71 10 -122 7 -101 -6
-147 -48 -162 -17 -6 -346 -8 -378 -2 -4 1 6 41 21 90 47 148 44 196 -12 255
-60 62 -91 66 -209 26 -52 -18 -100 -35 -107 -38 -13 -5 -12 53 2 173 2 17 7
73 11 125 4 52 8 111 10 130 2 19 5 51 6 71 l3 37 68 0 c56 0 68 -3 69 -16z"/>
<path d="M451 441 c-124 -43 -166 -62 -172 -78 -11 -29 -1 -39 81 -80 l75 -38
34 -82 c25 -61 39 -83 52 -83 10 0 22 8 28 18 18 35 113 361 109 379 -2 10
-12 19 -23 20 -11 1 -94 -24 -184 -56z"/>
<path d="M276 181 c-15 -16 -26 -37 -24 -46 2 -13 11 -9 41 21 20 20 37 41 37
46 0 17 -27 7 -54 -21z"/>
<path d="M291 98 c-44 -48 -60 -73 -53 -80 7 -7 30 10 74 57 35 37 64 74 66
81 7 31 -26 8 -87 -58z"/>
<path d="M358 56 c-32 -40 -34 -46 -14 -46 14 0 66 58 66 73 0 18 -28 3 -52
-27z"/>
</g>
</svg>
